<svg xmlns="http://www.w3.org/2000/svg" viewBox="0 0 100 100">
  <rect width="100" height="100" fill="#ffffff"/>
  <defs>
    <linearGradient id="grad1" x1="0%" y1="0%" x2="100%" y2="100%">
      <stop offset="0%" style="stop-color:#5856D6;stop-opacity:1" />
      <stop offset="100%" style="stop-color:#AF52DE;stop-opacity:1" />
    </linearGradient>
  </defs>
  <!-- Pen Tip / Creative -->
  <path fill="url(#grad1)" d="M65 25c2.76 0 5 2.24 5 5 0 1.5-.7 2.85-1.8 3.7L42 60l-12 3 3-12 26.3-26.2c.85-1.1 2.2-1.8 3.7-1.8m0-4c-4.97 0-9 4.03-9 9 0 1.32.28 2.57.78 3.7L30 60c-.55.55-.55 1.45 0 2 .55.55 1.45.55 2 0l26.3-26.78c1.13.5 2.38.78 3.7.78 4.97 0 9-4.03 9-9s-4.03-9-9-9z"/>
  <path fill="#AF52DE" d="M28 66l4 4-8 2 4-6z"/>
  <circle cx="75" cy="20" r="3" fill="#5856D6" opacity="0.6"/>
  <circle cx="80" cy="30" r="2" fill="#5856D6" opacity="0.4"/>
</svg>
