<svg xmlns="http://www.w3.org/2000/svg" viewBox="0 0 100 100">
  <rect width="100" height="100" fill="#ffffff"/>
  <defs>
    <linearGradient id="grad1" x1="0%" y1="0%" x2="100%" y2="100%">
      <stop offset="0%" style="stop-color:#5856D6;stop-opacity:1" />
      <stop offset="100%" style="stop-color:#AF52DE;stop-opacity:1" />
    </linearGradient>
  </defs>
  <!-- Lightbulb / Spark Icon -->
  <path fill="url(#grad1)" d="M50 20c-11.05 0-20 8.95-20 20 0 7.27 3.99 13.63 10 17.15V65c0 2.76 2.24 5 5 5h10c2.76 0 5-2.24 5-5v-7.85c6.01-3.52 10-9.88 10-17.15 0-11.05-8.95-20-20-20zm0 30c-2.76 0-5-2.24-5-5s2.24-5 5-5 5 2.24 5 5-2.24 5-5 5z"/>
  <rect x="42" y="73" width="16" height="3" fill="#5856D6" rx="1.5"/>
  <rect x="44" y="79" width="12" height="3" fill="#5856D6" rx="1.5"/>
</svg>
